<?xml version="1.0"?>
<svg width="464" height="624" xmlns="http://www.w3.org/2000/svg" xmlns:svg="http://www.w3.org/2000/svg" enable-background="new 0 0 464 624" version="1.1" xml:space="preserve">
 <g class="layer">
  <title>Layer 1</title>
  <path d="m260.62,56.4c8.45,8.93 15.91,18.31 24.57,26.57c2.49,2.38 3.44,5.68 4.62,8.74c6.47,16.87 12.8,33.78 19.49,51.5c-9.59,-2.36 -18.61,-4.58 -27.9,-6.86c-0.36,2.29 1.27,3.13 2.32,4.21c10.06,10.4 20.11,20.81 30.28,31.11c2.21,2.24 2.73,4.26 1.22,7.08c-1.14,2.13 -2.67,4.22 -2.68,7.12c0.71,0.33 1.43,0.97 2.14,0.97c6.01,-0.05 7.79,3.89 9.31,8.84c2.14,6.97 5.72,13.53 7.4,20.58c2.81,11.88 12.98,16.58 21,23.45c2.43,2.09 5.17,3.41 8.39,4.04c20.1,3.9 40.18,7.94 60.27,11.91c10.7,2.11 21.42,4.17 32.12,6.29c0.42,0.08 0.76,0.55 1.51,1.14c-3.19,2.76 -7.17,3.27 -10.62,4.84c-8.27,3.74 -16.68,4.9 -25.44,1.58c-1.85,-0.7 -3.72,-0.55 -5.44,1.19c-3.62,3.66 -7.99,6.65 -11.22,10.6c-5.15,6.3 -12.65,6.59 -19.38,7.83c-30.92,5.69 -61.95,10.74 -92.95,16.02c-5.36,0.91 -8.68,-2.93 -12.1,-5.78c-6.41,-5.35 -13.96,-9 -20.33,-14.36c-0.41,-0.34 -1.18,-0.25 -1.7,-0.34c-1.95,9.99 7.68,16.34 7.57,25.85c-6.64,2.11 -13.49,1.88 -20.14,2.59c-14,1.49 -28.06,2.49 -42.12,3.15c-11.22,0.53 -21.87,-3.42 -32.77,-5.37c-21.61,-3.86 -43.01,-8.85 -64.68,-12.48c-10.29,-1.72 -20.56,-4.19 -29.78,-9.27c-8.28,-4.56 -17.3,-5.42 -26.29,-6.8c-9.29,-1.43 -18.57,-2.85 -28.63,-4.38c3.14,-3.43 6.76,-2.72 9.71,-3.11c5.19,-0.7 9.84,-1.05 14.51,-4.7c3.51,-2.75 9.39,-2.52 14.24,-3.47c3.3,-0.65 6.81,-1.2 8.96,-3.88c7.54,-9.35 18.61,-12.29 29.2,-14.81c17.15,-4.08 32.67,-11.88 48.74,-18.47c5.87,-2.41 5.6,-8.43 7.33,-12.91c12.25,-31.75 23.94,-63.71 36.04,-95.52c2.53,-6.65 2.17,-13.37 2.28,-20.16c0.05,-2.91 -0.5,-5.91 0.62,-8.87c3.77,0.07 4.97,3.56 8.12,5.02c-6.02,-10.9 -15.3,-18.99 -20.19,-30.76c-2.45,3.13 -4.4,6.25 -8.59,5.02c-0.33,-0.09 -1.05,0.69 -1.39,1.19c-3.26,4.77 -8.01,7.12 -13.31,9.01c-9.65,3.45 -17.05,10.7 -26.9,16.47c4.52,-9.28 8.07,-17.66 15.68,-23.79c9.29,-7.48 18.14,-15.51 27.16,-23.33c13.02,-11.3 26.04,-22.61 39.03,-33.95c2.13,-1.86 4.08,-3.93 6.1,-5.91c1.53,-1.51 2.75,-1.26 4.17,0.32c11.45,12.68 22.99,25.28 34.43,37.97c1.99,2.21 3.38,4.94 6.02,7.08z" fill="#000000" id="svg_1" opacity="1"/>
  <path d="m268.64,297.32c5.09,5.8 11.19,9.91 16.77,14.62c1.46,1.23 3.05,1.31 5.07,0.96c24.45,-4.19 48.92,-8.21 73.39,-12.22c6.69,-1.1 13.31,-2.68 20.12,-3.03c3.03,-0.16 4.94,0.63 5.61,4.11c1.04,5.42 5.05,8.24 10.8,9.66c-3.79,4.39 -8.52,5.29 -13.18,5.85c-6.52,0.79 -6.6,0.99 -5.22,7.17c1.94,8.7 4.65,17.31 4.37,26.4c-0.12,3.71 -0.98,7.17 -2.8,11.17c-2.23,-4.73 -2.28,-9.8 -6.39,-13.01c-3.51,-2.74 -6.81,-4.5 -11.36,-2.7c-4.2,1.66 -4.03,5.19 -4.27,8.64c-0.24,3.28 -0.44,6.57 -0.66,9.85c-0.5,7.55 3.64,12.76 8.72,17.54c1.19,1.12 2.15,2.48 3.19,3.7c-1.28,4.05 -4.23,4.72 -7.57,4.29c-2.94,-0.39 -5.97,-0.74 -8.71,-1.76c-4.22,-1.55 -5.54,0.76 -6.07,4.05c-0.33,2.11 -0.47,4.44 0.06,6.47c2.35,8.98 0.06,16.47 -5.91,23.47c-4.89,5.72 -6.23,12.43 -4,20c2.06,7.02 0.58,13.61 -4.76,19.05c0.4,-3.95 1.17,-7.85 -0.43,-11.64c-0.76,-1.81 -1.37,-4.17 -3.73,-4.19c-1.99,-0.01 -3.14,1.91 -3.78,3.6c-2.2,5.8 -5.45,11.02 -8.64,16.25c-7.47,12.23 -4.14,24.3 1.47,35.57c6.84,13.73 9.95,27.39 9.11,43.02c-1.03,19.01 -8.19,34.95 -18.03,50.33c-2.94,4.58 -3.86,10.16 -7.83,15.46c-0.47,-9.66 -0.87,-18.34 -1.33,-27.01c-0.44,-8.24 1.13,-16.57 -2.04,-24.69c-3.49,-8.92 -9.89,-14.24 -18.75,-17.07c-28.71,-9.17 -56.68,-19.78 -80.83,-38.63c-15.39,-12.01 -27.17,-26.71 -35.23,-44.38c-3.31,-7.25 -3.47,-15.14 -3.13,-22.99c0.16,-3.56 -0.87,-6.49 -3.55,-8.92c-1.84,-1.68 -3.36,-1.63 -5.22,-0.04c-5.7,4.84 -6.14,11.51 -6.12,18.16c0.02,9.92 5.23,17.14 13.31,22.51c-0.68,0.64 -0.97,1.06 -1.1,1.02c-18.55,-5.99 -33.91,-16.16 -42.06,-34.5c-4.62,-10.4 -5.68,-21.73 -5.35,-33.15c0.1,-3.39 1.64,-7.74 -1.18,-10.02c-2.75,-2.22 -6.08,1.16 -9.22,1.77c-4.99,0.97 -9.88,-0.29 -16.13,-1.26c10.77,-8.5 14.95,-20.02 18.24,-31.69c3.31,-11.76 3.87,-23.76 -2.37,-35.9c-4.41,4.8 -5.13,9.04 -1.82,14.21c-3.89,-0.26 -6.69,-1.51 -8.34,-4.27c-4.98,-8.31 -4.49,-21.08 3.76,-27.61c3.1,-2.46 6.78,-3.32 10.24,-1.86c13.86,5.86 28.77,7.4 43.21,10.81c15.28,3.6 30.8,6.19 46.09,9.74c7.46,1.73 14.49,-0.41 21.66,-0.98c13.68,-1.1 27.29,-3.03 40.93,-4.61c3.13,-0.36 6.26,-0.63 9.38,-1.08c3.76,-0.55 2.69,-3.22 2,-5.35c-1.68,-5.24 -4.26,-10.07 -7.19,-14.73c-0.74,-1.19 -1.84,-2.43 -1.3,-4.32c3.78,-1.11 5.41,2.27 8.1,4.16z" fill="#000000" id="svg_2" opacity="1"/>
 </g>
</svg>