<?xml version="1.0"?>
<svg width="690" height="690" xmlns="http://www.w3.org/2000/svg" xmlns:svg="http://www.w3.org/2000/svg" enable-background="new 0 0 464 624" version="1.1" xml:space="preserve">
 <g class="layer">
  <title>Layer 1</title>
  <ellipse cx="345.75" cy="343.75" fill="#7f7f7f" id="svg_4" rx="337" ry="334" transform="matrix(1 0 0 1 0 0)"/>
  <ellipse cx="341.62" cy="340" fill="#3f3f3f" id="svg_8" rx="233.5" ry="278.5" transform="matrix(1 0 0 1 0 0)"/>
  <path d="m379.66,112.14c10.99,14.85 20.69,30.45 31.95,44.18c3.24,3.96 4.47,9.44 6.01,14.53c8.41,28.05 16.65,56.17 25.35,85.63c-12.47,-3.92 -24.2,-7.62 -36.28,-11.41c-0.47,3.81 1.65,5.2 3.02,7c13.08,17.29 26.15,34.6 39.38,51.73c2.87,3.72 3.55,7.08 1.59,11.77c-1.48,3.54 -3.47,7.02 -3.49,11.84c0.92,0.55 1.86,1.61 2.78,1.61c7.82,-0.08 10.13,6.47 12.11,14.7c2.78,11.59 7.44,22.5 9.62,34.22c3.65,19.75 16.88,27.57 27.31,38.99c3.16,3.48 6.72,5.67 10.91,6.72c26.14,6.48 52.25,13.2 78.38,19.8c13.91,3.51 27.86,6.93 41.77,10.46c0.55,0.13 0.99,0.91 1.96,1.9c-4.15,4.59 -9.32,5.44 -13.81,8.05c-10.75,6.22 -21.69,8.15 -33.08,2.63c-2.41,-1.16 -4.84,-0.91 -7.07,1.98c-4.71,6.09 -10.39,11.06 -14.59,17.63c-6.7,10.48 -16.45,10.96 -25.2,13.02c-40.21,9.46 -80.56,17.86 -120.88,26.64c-6.97,1.51 -11.29,-4.87 -15.74,-9.61c-8.34,-8.9 -18.15,-14.96 -26.44,-23.88c-0.53,-0.57 -1.53,-0.42 -2.21,-0.57c-2.54,16.61 9.99,27.17 9.84,42.98c-8.63,3.51 -17.54,3.13 -26.19,4.31c-18.21,2.48 -36.49,4.14 -54.77,5.24c-14.59,0.88 -28.44,-5.69 -42.62,-8.93c-28.1,-6.42 -55.93,-14.72 -84.11,-20.75c-13.38,-2.86 -26.74,-6.97 -38.73,-15.41c-10.77,-7.58 -22.5,-9.01 -34.19,-11.31c-12.08,-2.38 -24.15,-4.74 -37.23,-7.28c4.08,-5.7 8.79,-4.52 12.63,-5.17c6.75,-1.16 12.8,-1.75 18.87,-7.82c4.56,-4.57 12.21,-4.19 18.52,-5.77c4.29,-1.08 8.86,-2 11.65,-6.45c9.81,-15.55 24.2,-20.44 37.97,-24.63c22.3,-6.78 42.49,-19.75 63.38,-30.71c7.63,-4.01 7.28,-14.02 9.53,-21.47c15.93,-52.79 31.13,-105.94 46.87,-158.83c3.29,-11.06 2.82,-22.23 2.97,-33.52c0.07,-4.84 -0.65,-9.83 0.81,-14.75c4.9,0.12 6.46,5.92 10.56,8.35c-7.83,-18.12 -19.9,-31.58 -26.26,-51.15c-3.19,5.2 -5.72,10.39 -11.17,8.35c-0.43,-0.15 -1.37,1.15 -1.81,1.98c-4.24,7.93 -10.42,11.84 -17.31,14.98c-12.55,5.74 -22.17,17.79 -34.98,27.39c5.88,-15.43 10.49,-29.36 20.39,-39.56c12.08,-12.44 23.59,-25.79 35.32,-38.79c16.93,-18.79 33.86,-37.6 50.76,-56.45c2.77,-3.09 5.31,-6.53 7.93,-9.83c1.99,-2.51 3.58,-2.1 5.42,0.53c14.89,21.08 29.9,42.04 44.77,63.14c2.59,3.67 4.4,8.21 7.83,11.77z" fill="#bfbfbf" id="svg_1"/>
 </g>
</svg>